<svg xmlns="http://www.w3.org/2000/svg" viewBox="0 0 2000.98 156"><defs><style>.cls-1{fill:#ff5e66;}</style></defs><title>Asset 5</title><g id="Layer_2" data-name="Layer 2"><g id="Layer_1-2" data-name="Layer 1"><g id="Logo_red_long" data-name="Logo red long"><polygon class="cls-1" points="29.1 127.71 29.1 0 0 0 0 156 25.46 156 29.1 156 94.97 156 94.97 127.71 29.1 127.71"/><polygon class="cls-1" points="282.5 26.67 282.5 0 194.8 0 191.16 0 165.7 0 165.7 156 191.16 156 194.8 156 282.5 156 282.5 129.33 194.8 129.33 194.8 91.34 271.18 91.34 271.18 64.66 194.8 64.66 194.8 26.67 282.5 26.67"/><polygon class="cls-1" points="807.89 127.71 807.89 0 836.98 0 836.98 156 811.52 156 807.89 156 742.01 156 742.01 127.71 807.89 127.71"/><polygon class="cls-1" points="548.83 26.67 548.83 0 636.53 0 640.17 0 665.63 0 665.63 156 640.17 156 636.53 156 548.83 156 548.83 129.33 636.53 129.33 636.53 91.34 560.14 91.34 560.14 64.66 636.53 64.66 636.53 26.67 548.83 26.67"/><polygon class="cls-1" points="450.81 94.01 508.01 0 442.8 0 423.95 37.99 450.81 94.01"/><polygon class="cls-1" points="392.95 0 326.95 0 415.06 152.77 445.22 103.19 392.95 0"/></g></g></g></svg>